<?xml version="1.0" encoding="UTF-8"?>
<!-- Generator: Adobe Illustrator 18.0.0, SVG Export Plug-In . SVG Version: 6.00 Build 0)  -->
<!DOCTYPE svg PUBLIC "-//W3C//DTD SVG 1.1//EN" "http://www.w3.org/Graphics/SVG/1.1/DTD/svg11.dtd">
<svg version="1.1" id="Layer_1" xmlns="http://www.w3.org/2000/svg" xmlns:xlink="http://www.w3.org/1999/xlink" x="0px" y="0px" viewBox="0 0 139 26" enable-background="new 0 0 139 26" xml:space="preserve">
<g>
	<g>
		<linearGradient id="SVGID_1_" gradientUnits="userSpaceOnUse" x1="69.5078" y1="0" x2="69.5078" y2="26.0112">
			<stop offset="0" style="stop-color:#FFFFFF"/>
			<stop offset="1" style="stop-color:#C6C8CD"/>
		</linearGradient>
		<path fill="url(#SVGID_1_)" d="M104.2,7H94v19h5V12h3.1c0.8,0,1.5,0.3,2,0.9c0.6,0.6,0.9,1.3,0.9,2.1V26h5V13    c0-1.7-0.6-3.1-1.7-4.2C107.2,7.6,105.8,7,104.2,7z M119,12h7V7h-9.1c-1.7,0-3.1,0.6-4.2,1.7c-1.1,1.1-1.7,2.5-1.7,4.3v7.2    c0,1.7,0.6,3.1,1.7,4.3c1.1,1.1,2.5,1.7,4.2,1.7h9.1l0-5h-7c-2.9,0-2.9-0.5-2.9-2c1.5,0,10,0,10,0v-5h-10    C116,11.9,116.9,12,119,12z M139,12V7h-5V0h-5v7h-2v5h2v8.1c0,1.7,0.5,3.1,1.6,4.3c1.1,1.1,2.2,1.7,3.8,1.7h4.5v-5h-2.1    c-0.8,0-1.5-0.3-2-0.9c-0.6-0.6-0.8-1.3-0.8-2.1v-6H139z M1.7,2.7C0.6,3.8,0,5.2,0,6.9V26h5v-9h13v-5H5V9c0-0.8,0.3-1.5,0.9-2.1    C6.5,6.3,7.2,6,8,6h10V1H5.9C4.2,1,2.8,1.6,1.7,2.7z M19,26h5V7h-5V26z M19,6h5V1h-5V6z M25,26H30V1H25V26z M50.1,7H31v19h5V12h5    v14h5V12h2.1c0.8,0,1.5,0.3,2.1,0.9c0.6,0.6,0.9,1.3,0.9,2.1v11h5V12.9c0-1.7-0.6-3.1-1.7-4.3C53.2,7.6,51.8,7,50.1,7z M83,7h-5.3    l-4.8,6.8L68.2,7H63l6.6,9.5L63,26h5.1l4.8-6.8l4.8,6.8H83l-6.6-9.5L83,7z M57,6h5V1h-5V6z M57,26h5V7h-5V26z"/>
	</g>
</g>
<path fill-rule="evenodd" clip-rule="evenodd" fill="#F26838" d="M85,19.1v-2.6v0v-2.6c0,0,0.4-1.6,2-0.6c1.8,1.3,3.5,2.2,3.5,2.2  S91,16,91,16.5c0,0,0,0,0,0c0,0,0,0,0,0s0,0,0,0c0,0,0,0,0,0c0,0.5-0.5,0.9-0.5,0.9s-1.7,1.1-3.5,2.2C85.4,20.7,85,19.1,85,19.1z"/>
</svg>